<svg t="1658394036560" class="icon" viewBox="0 0 1024 1024" version="1.1" xmlns="http://www.w3.org/2000/svg" p-id="4627" width="200" height="200"><path d="M908.3904 415.8464l-121.856-212.3264c-30.9248-53.8624-88.6784-87.3984-150.7328-87.552l-244.7872-0.6144h-0.4608c-61.9008 0-119.6544 33.2288-150.784 86.784L116.8384 413.8496c-31.1808 53.7088-31.3344 120.4736-0.4608 174.336l121.856 212.2752c30.9248 53.8624 88.6784 87.3984 150.7328 87.552l244.7872 0.6144h0.4608c61.9008 0 119.6544-33.2288 150.784-86.784l122.9312-211.6608c31.1808-53.6576 31.3856-120.4736 0.4608-174.336z" fill="#7B79FF" p-id="4628"></path><path d="M488.8576 648.448c-7.6288 0-15.0528-2.8672-20.7872-8.0896l-127.9488-117.3504c-12.4928-11.4688-13.3632-30.9248-1.8944-43.4176a30.7456 30.7456 0 0 1 43.4176-1.8944l102.0928 93.6448 131.7376-188.3648a30.72 30.72 0 0 1 42.8032-7.5776 30.72 30.72 0 0 1 7.5776 42.8032l-151.808 217.088a30.6688 30.6688 0 0 1-21.8112 12.9536c-1.1264 0.1536-2.2528 0.2048-3.3792 0.2048z" fill="#FFFFFF" p-id="4629"></path></svg>