<?xml version="1.0" standalone="no"?><!DOCTYPE svg PUBLIC "-//W3C//DTD SVG 1.1//EN" "http://www.w3.org/Graphics/SVG/1.1/DTD/svg11.dtd"><svg t="1656475393667" class="icon" viewBox="0 0 1024 1024" version="1.1" xmlns="http://www.w3.org/2000/svg" p-id="1387" xmlns:xlink="http://www.w3.org/1999/xlink" width="200" height="200"><defs><style type="text/css">@font-face { font-family: feedback-iconfont; src: url("//at.alicdn.com/t/font_1031158_u69w8yhxdu.woff2?t=1630033759944") format("woff2"), url("//at.alicdn.com/t/font_1031158_u69w8yhxdu.woff?t=1630033759944") format("woff"), url("//at.alicdn.com/t/font_1031158_u69w8yhxdu.ttf?t=1630033759944") format("truetype"); }
</style></defs><path d="M911.125138 551.757505c0 220.592147-178.82422 399.416367-399.416367 399.416367-220.582752 0-399.406972-178.82422-399.406973-399.416367 0-220.582752 178.82422-399.416367 399.406973-399.416367s399.416367 178.82422 399.416367 399.416367" fill="#F5F0FF" p-id="1388"></path><path d="M461.626716 651.404917L287.020624 826.011009a35.417248 35.417248 0 0 0 50.082055 50.072661L511.718165 701.486972l-50.07266-50.082055z" fill="#F4731C" p-id="1389"></path><path d="M281.806679 869.244477a35.323303 35.323303 0 0 0 43.233468-5.223339l174.606092-174.596698-38.019523-38.019523-174.606092 174.606092a35.342092 35.342092 0 0 0-5.213945 43.233468" fill="#FF781D" p-id="1390"></path><path d="M846.152807 543.847339L619.266349 316.970275a60.632073 60.632073 0 0 1 0-85.752954 60.632073 60.632073 0 0 1 85.752954 0l226.877064 226.877064a60.632073 60.632073 0 0 1 0 85.762349 60.632073 60.632073 0 0 1-85.74356 0M665.214826 751.484477l-14.909065-14.909064 135.186789-135.186789a41.89945 41.89945 0 0 0 0-59.241688L620.976147 377.630532a41.89945 41.89945 0 0 0-59.251083 0l-135.186789 135.186789L411.648 497.908257c-23.223193-23.223193-61.421211-26.642789-85.818716-4.678459a60.641468 60.641468 0 0 0-2.358018 87.998239l258.42378 258.433174a60.641468 60.641468 0 0 0 87.998238-2.367413c21.973725-24.397505 18.544734-62.595523-4.669064-85.809321" fill="#0091F1" p-id="1391"></path><path d="M885.67545 497.626422a60.641468 60.641468 0 0 0 0-85.752954L705.019303 231.198532a60.650862 60.650862 0 0 0-85.762349 85.762349l180.665541 180.656147a60.632073 60.632073 0 0 0 85.752955 0M623.653578 791.072881c21.983119-24.397505 18.554128-62.595523-4.669064-85.818716l-14.909064-14.909064 135.186789-135.186789a41.89945 41.89945 0 0 0 0-59.232294L620.976147 377.630532a41.89945 41.89945 0 0 0-59.241688 0l-135.186789 135.186789L411.629211 497.908257c-23.204404-23.223193-61.411817-26.642789-85.809321-4.669064a60.632073 60.632073 0 0 0-2.367413 87.988844l212.221651 212.212257a60.632073 60.632073 0 0 0 87.97945-2.367413" fill="#00B1FF" p-id="1392"></path><path d="M85.302018 237.577394a11.310972 11.310972 0 0 1-11.310972-11.310972v-25.722128a11.310972 11.310972 0 1 1 22.621945 0v25.722128c0 6.247339-5.063633 11.310972-11.310973 11.310972M85.302018 302.380624a11.310972 11.310972 0 0 1-11.310972-11.310973v-25.722128a11.310972 11.310972 0 1 1 22.621945 0v25.722128c0 6.247339-5.063633 11.310972-11.310973 11.310973M77.07244 245.806972c0 6.247339-5.063633 11.310972-11.310972 11.310973H40.039339a11.310972 11.310972 0 1 1 0-22.621945H65.761468c6.247339 0 11.310972 5.063633 11.310972 11.310972M141.87567 245.806972c0 6.247339-5.063633 11.310972-11.310973 11.310973H104.842569a11.310972 11.310972 0 1 1 0-22.621945h25.722128c6.247339 0 11.310972 5.063633 11.310973 11.310972" fill="#7BD721" p-id="1393"></path><path d="M333.964917 245.806972a15.256661 15.256661 0 1 1-30.513321 0 15.256661 15.256661 0 0 1 30.513321 0M866.642202 782.138716a15.256661 15.256661 0 1 1-30.503927 0 15.256661 15.256661 0 0 1 30.513321 0" fill="#5C3290" p-id="1394"></path><path d="M844.912734 947.209394a16.975853 16.975853 0 1 1 0-33.951706 16.975853 16.975853 0 0 1 0 33.951706m0-49.377467a32.401615 32.401615 0 1 0 0 64.803229 32.401615 32.401615 0 0 0 0-64.803229" fill="#00B1FF" p-id="1395"></path></svg>