<?xml version="1.0" standalone="no"?><!DOCTYPE svg PUBLIC "-//W3C//DTD SVG 1.1//EN" "http://www.w3.org/Graphics/SVG/1.1/DTD/svg11.dtd"><svg t="1658405686629" class="icon" viewBox="0 0 1024 1024" version="1.1" xmlns="http://www.w3.org/2000/svg" p-id="17206" xmlns:xlink="http://www.w3.org/1999/xlink" width="200" height="200"><defs><style type="text/css">@font-face { font-family: feedback-iconfont; src: url("//at.alicdn.com/t/font_1031158_u69w8yhxdu.woff2?t=1630033759944") format("woff2"), url("//at.alicdn.com/t/font_1031158_u69w8yhxdu.woff?t=1630033759944") format("woff"), url("//at.alicdn.com/t/font_1031158_u69w8yhxdu.ttf?t=1630033759944") format("truetype"); }
</style></defs><path d="M201.770667 374.997333l640 150.613334A42.666667 42.666667 0 0 1 874.666667 567.104V789.333333a85.333333 85.333333 0 0 1-85.333334 85.333334H234.666667a85.333333 85.333333 0 0 1-85.333334-85.333334V416.533333a42.666667 42.666667 0 0 1 52.437334-41.536z" fill="#1479E5" p-id="17207"></path><path d="M298.666667 128h341.333333a170.666667 170.666667 0 0 1 170.666667 170.666667v490.666666a85.333333 85.333333 0 0 1-85.333334 85.333334H298.666667a85.333333 85.333333 0 0 1-85.333334-85.333334V213.333333a85.333333 85.333333 0 0 1 85.333334-85.333333z" fill="#1787FF" p-id="17208"></path><path d="M149.333333 746.666667l725.333334-128v170.666666a85.333333 85.333333 0 0 1-85.333334 85.333334H234.666667a85.333333 85.333333 0 0 1-85.333334-85.333334v-42.666666z" fill="#22C3FF" p-id="17209"></path><path d="M512 277.333333c48.170667 0 87.232 38.186667 87.232 85.333334a84.672 84.672 0 0 1-36.352 69.333333 86.442667 86.442667 0 0 1 50.069333 46.954667l26.197334 61.013333a10.56 10.56 0 0 1-4.928 13.546667c-24.789333 12.885333-58.410667 20.245333-100.842667 22.037333L533.333333 512a21.333333 21.333333 0 1 0-42.666666 0v63.573333c-42.453333-1.813333-76.096-9.173333-100.885334-22.058666a10.56 10.56 0 0 1-4.928-13.546667l26.197334-61.013333a86.4 86.4 0 0 1 50.069333-46.954667A84.714667 84.714667 0 0 1 424.746667 362.666667c0-47.146667 39.04-85.333333 87.232-85.333334z" fill="#FFFFFF" fill-opacity=".95" p-id="17210"></path></svg>