<?xml version="1.0" standalone="no"?><!DOCTYPE svg PUBLIC "-//W3C//DTD SVG 1.1//EN" "http://www.w3.org/Graphics/SVG/1.1/DTD/svg11.dtd"><svg t="1656388745912" class="icon" viewBox="0 0 1024 1024" version="1.1" xmlns="http://www.w3.org/2000/svg" p-id="8114" xmlns:xlink="http://www.w3.org/1999/xlink" width="200" height="200"><defs><style type="text/css">@font-face { font-family: feedback-iconfont; src: url("//at.alicdn.com/t/font_1031158_u69w8yhxdu.woff2?t=1630033759944") format("woff2"), url("//at.alicdn.com/t/font_1031158_u69w8yhxdu.woff?t=1630033759944") format("woff"), url("//at.alicdn.com/t/font_1031158_u69w8yhxdu.ttf?t=1630033759944") format("truetype"); }
</style></defs><path d="M512 260.266667l42.666667 262.4c0 21.333333-19.2 36.266667-42.666667 36.266666s-42.666667-17.066667-42.666667-36.266666" fill="#4C64FE" p-id="8115"></path><path d="M488.533333 85.333333C264.533333 98.133333 85.333333 285.866667 85.333333 509.866667c0 155.733333 81.066667 290.133333 204.8 364.8 23.466667 14.933333 51.2-2.133333 51.2-29.866667V832c0-14.933333-6.4-29.866667-19.2-38.4-34.133333-23.466667-64-51.2-87.466666-85.333333 23.466667-8.533333 36.266667-34.133333 27.733333-57.6-8.533333-25.6-34.133333-38.4-59.733333-32l-12.8 6.4c-14.933333-40.533333-21.333333-85.333333-19.2-132.266667 2.133333-32 8.533333-64 19.2-91.733333 10.666667 8.533333 27.733333 10.666667 42.666666 6.4 25.6-8.533333 38.4-34.133333 32-59.733334-4.266667-14.933333-17.066667-25.6-29.866666-29.866666 53.333333-76.8 136.533333-130.133333 232.533333-142.933334 0 4.266667 0 8.533333 2.133333 12.8 8.533333 25.6 34.133333 38.4 59.733334 32 19.2-6.4 32-23.466667 34.133333-44.8 98.133333 12.8 183.466667 70.4 236.8 149.333334-14.933333 12.8-23.466667 32-17.066667 51.2 8.533333 23.466667 32 38.4 57.6 32 10.666667 32 17.066667 68.266667 17.066667 104.533333 0 40.533333-6.4 76.8-19.2 113.066667-10.666667-6.4-25.6-10.666667-40.533333-6.4-25.6 8.533333-38.4 34.133333-32 59.733333 4.266667 14.933333 14.933333 23.466667 27.733333 29.866667-23.466667 34.133333-55.466667 64-89.6 87.466666-12.8 8.533333-19.2 21.333333-19.2 36.266667v12.8c0 27.733333 29.866667 44.8 55.466667 29.866667 121.6-74.666667 200.533333-209.066667 200.533333-362.666667C938.666667 268.8 733.866667 72.533333 488.533333 85.333333z" fill="#4C64FE" opacity=".6" p-id="8116"></path><path d="M661.333333 142.933333c0-19.2-12.8-36.266667-29.866666-40.533333-44.8-12.8-93.866667-19.2-142.933334-17.066667C264.533333 98.133333 85.333333 285.866667 85.333333 509.866667c0 155.733333 81.066667 290.133333 204.8 364.8 23.466667 14.933333 51.2-2.133333 51.2-29.866667V832c0-14.933333-6.4-29.866667-19.2-38.4-34.133333-23.466667-64-51.2-87.466666-85.333333-34.133333-40.533333-44.8-83.2-44.8-83.2-14.933333-40.533333-21.333333-85.333333-19.2-132.266667 2.133333-32 8.533333-64 19.2-91.733333 0 0 8.533333-40.533333 44.8-83.2 53.333333-76.8 136.533333-130.133333 232.533333-142.933334 0 0 49.066667-10.666667 96 0 14.933333 2.133333 29.866667 4.266667 44.8 8.533334 27.733333 8.533333 53.333333-10.666667 53.333333-40.533334z" fill="#4C64FE" p-id="8117"></path></svg>